<mxfile host="Electron" agent="Mozilla/5.0 (Windows NT 10.0; Win64; x64) AppleWebKit/537.36 (KHTML, like Gecko) draw.io/28.1.2 Chrome/138.0.7204.243 Electron/37.4.0 Safari/537.36" version="28.1.2">
  <diagram name="Page-1" id="yn507euPht28QzgaYiQ1">
    <mxGraphModel dx="1042" dy="834" grid="1" gridSize="10" guides="1" tooltips="1" connect="1" arrows="1" fold="1" page="1" pageScale="1" pageWidth="827" pageHeight="1169" math="0" shadow="0">
      <root>
        <mxCell id="0" />
        <mxCell id="1" parent="0" />
        <mxCell id="hrBbRlhsaCcnHXH5dRRE-1" value="&lt;span&gt;Requirements&lt;/span&gt;" style="rounded=0;whiteSpace=wrap;html=1;fontStyle=0;fontFamily=Lucida Console;fontSize=14;strokeWidth=2;miterlimit=4;shadow=0;sketch=1;curveFitting=1;jiggle=2;" parent="1" vertex="1">
          <mxGeometry x="40" y="40" width="140" height="40" as="geometry" />
        </mxCell>
        <mxCell id="hrBbRlhsaCcnHXH5dRRE-2" value="&lt;span&gt;Analysis&lt;/span&gt;" style="rounded=0;whiteSpace=wrap;html=1;fontStyle=0;fontFamily=Lucida Console;fontSize=14;strokeWidth=2;sketch=1;curveFitting=1;jiggle=2;" parent="1" vertex="1">
          <mxGeometry x="120" y="100" width="140" height="40" as="geometry" />
        </mxCell>
        <mxCell id="hrBbRlhsaCcnHXH5dRRE-4" value="&lt;span&gt;Design&lt;/span&gt;" style="rounded=0;whiteSpace=wrap;html=1;fontStyle=0;fontFamily=Lucida Console;fontSize=14;strokeWidth=2;sketch=1;curveFitting=1;jiggle=2;" parent="1" vertex="1">
          <mxGeometry x="200" y="160" width="140" height="40" as="geometry" />
        </mxCell>
        <mxCell id="hrBbRlhsaCcnHXH5dRRE-7" value="&lt;span&gt;Release&lt;/span&gt;" style="rounded=0;whiteSpace=wrap;html=1;fontStyle=0;fontFamily=Lucida Console;fontSize=14;strokeWidth=2;sketch=1;curveFitting=1;jiggle=2;" parent="1" vertex="1">
          <mxGeometry x="400" y="390" width="140" height="40" as="geometry" />
        </mxCell>
        <mxCell id="hrBbRlhsaCcnHXH5dRRE-8" value="&lt;span&gt;Operation&lt;/span&gt;" style="rounded=0;whiteSpace=wrap;html=1;fontStyle=0;fontFamily=Lucida Console;fontSize=14;strokeWidth=2;sketch=1;curveFitting=1;jiggle=2;" parent="1" vertex="1">
          <mxGeometry x="480" y="450" width="140" height="40" as="geometry" />
        </mxCell>
        <mxCell id="hrBbRlhsaCcnHXH5dRRE-18" value="" style="curved=1;endArrow=block;html=1;rounded=0;exitX=1;exitY=0.5;exitDx=0;exitDy=0;strokeWidth=4;endFill=1;entryX=0.643;entryY=0;entryDx=0;entryDy=0;entryPerimeter=0;sketch=1;curveFitting=1;jiggle=2;" parent="1" source="hrBbRlhsaCcnHXH5dRRE-1" target="hrBbRlhsaCcnHXH5dRRE-2" edge="1">
          <mxGeometry width="50" height="50" relative="1" as="geometry">
            <mxPoint x="330" y="100" as="sourcePoint" />
            <mxPoint x="380" y="50" as="targetPoint" />
            <Array as="points">
              <mxPoint x="200" y="60" />
            </Array>
          </mxGeometry>
        </mxCell>
        <mxCell id="hrBbRlhsaCcnHXH5dRRE-19" value="" style="curved=1;endArrow=block;html=1;rounded=0;exitX=1;exitY=0.5;exitDx=0;exitDy=0;strokeWidth=4;endFill=1;entryX=0.643;entryY=0;entryDx=0;entryDy=0;entryPerimeter=0;sketch=1;curveFitting=1;jiggle=2;" parent="1" edge="1">
          <mxGeometry width="50" height="50" relative="1" as="geometry">
            <mxPoint x="260" y="120" as="sourcePoint" />
            <mxPoint x="290" y="160" as="targetPoint" />
            <Array as="points">
              <mxPoint x="280" y="120" />
            </Array>
          </mxGeometry>
        </mxCell>
        <mxCell id="hrBbRlhsaCcnHXH5dRRE-20" value="" style="curved=1;endArrow=block;html=1;rounded=0;exitX=1;exitY=0.5;exitDx=0;exitDy=0;strokeWidth=4;endFill=1;entryX=0.643;entryY=0;entryDx=0;entryDy=0;entryPerimeter=0;sketch=1;curveFitting=1;jiggle=2;" parent="1" edge="1">
          <mxGeometry width="50" height="50" relative="1" as="geometry">
            <mxPoint x="340" y="180" as="sourcePoint" />
            <mxPoint x="370" y="220" as="targetPoint" />
            <Array as="points">
              <mxPoint x="360" y="180" />
            </Array>
          </mxGeometry>
        </mxCell>
        <mxCell id="hrBbRlhsaCcnHXH5dRRE-22" value="" style="curved=1;endArrow=block;html=1;rounded=0;exitX=1;exitY=0.5;exitDx=0;exitDy=0;strokeWidth=4;endFill=1;entryX=0.643;entryY=0;entryDx=0;entryDy=0;entryPerimeter=0;sketch=1;curveFitting=1;jiggle=2;" parent="1" edge="1">
          <mxGeometry width="50" height="50" relative="1" as="geometry">
            <mxPoint x="460" y="350" as="sourcePoint" />
            <mxPoint x="490" y="390" as="targetPoint" />
            <Array as="points">
              <mxPoint x="480" y="350" />
            </Array>
          </mxGeometry>
        </mxCell>
        <mxCell id="hrBbRlhsaCcnHXH5dRRE-23" value="" style="curved=1;endArrow=block;html=1;rounded=0;exitX=1;exitY=0.5;exitDx=0;exitDy=0;strokeWidth=4;endFill=1;entryX=0.643;entryY=0;entryDx=0;entryDy=0;entryPerimeter=0;sketch=1;curveFitting=1;jiggle=2;" parent="1" edge="1">
          <mxGeometry width="50" height="50" relative="1" as="geometry">
            <mxPoint x="540" y="410" as="sourcePoint" />
            <mxPoint x="570" y="450" as="targetPoint" />
            <Array as="points">
              <mxPoint x="560" y="410" />
            </Array>
          </mxGeometry>
        </mxCell>
        <mxCell id="Mq9I9TQuFpbFucoD6HDy-1" value="&lt;span style=&quot;font-family: &amp;quot;Lucida Console&amp;quot;; font-size: 14px;&quot;&gt;Coding&lt;/span&gt;" style="ellipse;whiteSpace=wrap;html=1;strokeWidth=2;sketch=1;curveFitting=1;jiggle=2;" vertex="1" parent="1">
          <mxGeometry x="310" y="220" width="120" height="50" as="geometry" />
        </mxCell>
        <mxCell id="Mq9I9TQuFpbFucoD6HDy-2" value="&lt;span style=&quot;font-family: &amp;quot;Lucida Console&amp;quot;; font-size: 14px;&quot;&gt;Testing&lt;/span&gt;" style="ellipse;whiteSpace=wrap;html=1;strokeWidth=2;sketch=1;curveFitting=1;jiggle=2;" vertex="1" parent="1">
          <mxGeometry x="360" y="300" width="120" height="50" as="geometry" />
        </mxCell>
        <mxCell id="Mq9I9TQuFpbFucoD6HDy-3" value="&lt;span style=&quot;font-family: &amp;quot;Lucida Console&amp;quot;; font-size: 14px;&quot;&gt;Integration&lt;/span&gt;" style="ellipse;whiteSpace=wrap;html=1;strokeWidth=2;sketch=1;curveFitting=1;jiggle=2;" vertex="1" parent="1">
          <mxGeometry x="210" y="280" width="120" height="50" as="geometry" />
        </mxCell>
        <mxCell id="Mq9I9TQuFpbFucoD6HDy-4" value="" style="curved=1;endArrow=block;html=1;rounded=0;strokeWidth=4;endFill=1;sketch=1;curveFitting=1;jiggle=2;" edge="1" parent="1" source="Mq9I9TQuFpbFucoD6HDy-1" target="Mq9I9TQuFpbFucoD6HDy-2">
          <mxGeometry width="50" height="50" relative="1" as="geometry">
            <mxPoint x="430" y="260" as="sourcePoint" />
            <mxPoint x="460" y="300" as="targetPoint" />
            <Array as="points">
              <mxPoint x="450" y="260" />
            </Array>
          </mxGeometry>
        </mxCell>
        <mxCell id="Mq9I9TQuFpbFucoD6HDy-5" value="" style="curved=1;endArrow=block;html=1;rounded=0;strokeWidth=4;endFill=1;sketch=1;curveFitting=1;jiggle=2;" edge="1" parent="1" source="Mq9I9TQuFpbFucoD6HDy-2" target="Mq9I9TQuFpbFucoD6HDy-3">
          <mxGeometry width="50" height="50" relative="1" as="geometry">
            <mxPoint x="320" y="350" as="sourcePoint" />
            <mxPoint x="350" y="390" as="targetPoint" />
            <Array as="points">
              <mxPoint x="340" y="350" />
            </Array>
          </mxGeometry>
        </mxCell>
        <mxCell id="Mq9I9TQuFpbFucoD6HDy-6" value="" style="curved=1;endArrow=block;html=1;rounded=0;strokeWidth=4;endFill=1;sketch=1;curveFitting=1;jiggle=2;" edge="1" parent="1" source="Mq9I9TQuFpbFucoD6HDy-3" target="Mq9I9TQuFpbFucoD6HDy-1">
          <mxGeometry width="50" height="50" relative="1" as="geometry">
            <mxPoint x="230" y="225" as="sourcePoint" />
            <mxPoint x="260" y="265" as="targetPoint" />
            <Array as="points">
              <mxPoint x="270" y="250" />
            </Array>
          </mxGeometry>
        </mxCell>
      </root>
    </mxGraphModel>
  </diagram>
</mxfile>
